<?xml version="1.0" encoding="UTF-8" standalone="no"?>
<!DOCTYPE svg PUBLIC "-//W3C//DTD SVG 20010904//EN"
              "http://www.w3.org/TR/2001/REC-SVG-20010904/DTD/svg10.dtd">

<svg xmlns="http://www.w3.org/2000/svg"
     width="50px" height="50px"
     viewBox="0 0 400 400">
  <path id="Whole Curved"
        fill="white" stroke="white" stroke-width="1"
        d="M 214.83,59.00
           C 215.64,51.81 215.92,44.43 224.00,42.00
             223.35,49.98 218.12,75.01 215.72,83.00
             214.63,86.62 212.90,95.30 207.22,93.34
             204.66,92.46 203.27,88.32 202.28,86.00
             199.34,79.09 198.52,74.38 194.00,68.00
             194.00,68.00 190.41,87.00 190.41,87.00
             189.55,92.15 189.91,95.26 185.00,98.00
             185.00,98.00 185.00,87.00 185.00,87.00
             181.91,89.81 180.47,90.99 177.00,93.33
             173.28,95.84 166.19,100.59 161.53,98.17
             158.24,96.47 158.02,92.20 157.34,89.00
             155.52,80.50 154.96,71.69 155.00,63.00
             155.05,54.23 158.34,47.97 167.00,44.66
             173.77,42.08 184.77,41.11 180.00,52.00
             175.30,51.16 168.32,50.39 164.74,54.51
             162.53,57.04 162.03,67.44 162.00,71.00
             165.09,68.50 175.35,62.04 178.98,66.60
             180.08,67.98 179.94,70.34 180.00,72.00
             173.94,72.28 163.86,73.82 162.35,81.00
             162.35,81.00 163.00,92.00 163.00,92.00
             163.00,92.00 184.00,83.00 184.00,83.00
             184.00,83.00 186.00,87.00 186.00,87.00
             186.00,87.00 188.15,58.00 188.15,58.00
             188.15,58.00 189.75,47.60 189.75,47.60
             189.75,47.60 201.00,44.00 201.00,44.00
             201.00,44.00 199.43,55.00 199.43,55.00
             199.43,55.00 209.00,84.00 209.00,84.00
             211.56,77.97 214.09,65.62 214.83,59.00 Z
           M 275.80,73.00
           C 276.88,83.94 265.86,90.76 258.00,96.00
             258.00,96.00 267.00,97.00 267.00,97.00
             267.00,97.00 268.00,101.00 268.00,101.00
             268.00,101.00 283.99,77.00 283.99,77.00
             283.99,77.00 292.18,67.78 292.18,67.78
             292.18,67.78 303.00,69.00 303.00,69.00
             301.21,73.95 298.80,75.33 296.33,80.00
             295.47,81.62 294.77,83.25 294.41,85.00
             293.38,87.70 292.31,92.00 294.41,94.26
             296.88,96.51 301.98,95.88 305.00,96.09
             311.87,96.56 318.88,96.67 325.00,100.00
             325.00,100.00 325.00,102.00 325.00,102.00
             325.00,102.00 312.00,109.87 312.00,109.87
             312.00,109.87 299.00,113.37 299.00,113.37
             290.24,116.68 291.51,118.90 281.00,119.00
             287.17,111.72 299.80,106.25 308.00,101.00
             302.78,101.00 289.14,102.43 286.17,97.72
             284.77,95.50 285.01,91.58 285.00,89.00
             285.00,89.00 268.91,106.98 268.91,106.98
             268.91,106.98 264.00,108.00 264.00,108.00
             264.00,108.00 267.00,101.00 267.00,101.00
             267.00,101.00 256.00,100.49 256.00,100.49
             252.83,100.56 240.99,105.06 239.49,101.44
             237.64,97.00 248.53,95.54 253.00,92.91
             263.17,86.92 272.33,79.92 263.70,68.01
             261.99,65.66 260.17,63.90 258.00,62.00
             258.00,62.00 249.32,79.00 249.32,79.00
             246.23,85.50 244.35,92.96 238.00,97.00
             238.39,88.54 241.16,82.71 244.09,75.00
             247.34,66.41 246.51,63.44 255.00,58.00
             248.65,55.96 247.03,54.64 248.00,48.00
             259.95,50.29 274.51,59.87 275.80,73.00 Z
           M 128.00,56.09
           C 137.50,56.78 146.19,61.34 148.84,71.00
             149.46,73.26 149.99,75.66 149.57,78.00
             149.01,81.14 146.67,84.58 144.67,87.00
             141.91,90.35 138.79,93.88 135.00,96.00
             137.58,102.30 139.77,104.08 140.00,111.00
             131.65,109.60 137.07,105.64 128.00,100.00
             128.97,93.05 123.90,84.71 121.75,78.00
             120.89,75.32 120.38,71.68 118.44,69.64
             116.84,67.95 114.10,66.92 112.00,66.00
             113.85,56.31 119.12,55.44 128.00,56.09 Z
           M 142.57,76.00
           C 141.31,68.73 130.91,62.48 124.00,65.00
             124.00,65.00 127.98,68.22 127.98,68.22
             127.98,68.22 129.92,77.00 129.92,77.00
             129.92,77.00 133.00,91.00 133.00,91.00
             138.08,88.54 143.62,82.11 142.57,76.00 Z
           M 94.32,75.65
           C 100.95,70.18 111.61,73.77 116.37,80.04
             123.36,89.26 122.12,99.15 122.00,110.00
             121.93,115.39 121.35,123.22 114.00,122.73
             109.75,122.45 105.72,119.32 102.17,117.27
             98.73,115.28 97.37,116.00 95.20,114.38
             92.76,112.56 88.46,104.08 86.86,101.00
             84.15,96.44 78.67,87.44 86.86,86.00
             86.86,86.00 88.00,89.00 88.00,89.00
             88.96,83.96 90.14,79.10 94.32,75.65 Z
           M 94.31,100.00
           C 95.95,103.18 100.26,107.35 103.00,109.70
             105.54,111.88 111.13,116.68 114.72,115.35
             118.61,113.91 118.14,106.29 117.71,103.00
             116.50,93.69 112.57,81.31 101.00,82.45
             94.03,85.21 90.82,93.19 94.31,100.00 Z
           M 228.00,106.58
           C 228.00,106.58 262.00,126.60 262.00,126.60
             262.00,126.60 297.00,147.20 297.00,147.20
             300.64,149.38 310.01,154.11 312.07,157.21
             314.15,160.34 313.99,165.36 314.00,169.00
             314.00,169.00 314.00,192.00 314.00,192.00
             314.00,192.00 315.00,209.00 315.00,209.00
             315.00,209.00 315.00,232.00 315.00,232.00
             315.00,232.00 316.00,249.00 316.00,249.00
             316.00,249.00 316.00,280.00 316.00,280.00
             316.00,281.80 316.14,285.07 315.43,286.67
             313.98,289.93 302.56,295.35 299.00,297.30
             299.00,297.30 251.00,324.14 251.00,324.14
             251.00,324.14 227.00,337.42 227.00,337.42
             218.19,342.42 214.49,346.29 204.00,345.98
             197.29,345.79 192.68,342.09 187.00,338.85
             187.00,338.85 158.00,321.99 158.00,321.99
             158.00,321.99 109.00,293.42 109.00,293.42
             105.42,291.37 95.09,286.26 93.60,282.79
             92.88,281.11 93.00,277.88 93.00,276.00
             93.00,276.00 93.00,162.00 93.00,162.00
             93.00,159.62 92.80,156.29 94.02,154.21
             95.54,151.63 99.42,150.09 102.00,148.69
             102.00,148.69 118.00,140.24 118.00,140.24
             118.00,140.24 172.00,111.69 172.00,111.69
             172.00,111.69 199.00,97.65 199.00,97.65
             212.51,94.87 217.01,100.20 228.00,106.58 Z
           M 222.95,129.00
           C 219.79,125.44 210.08,112.76 206.00,112.13
             200.65,111.30 192.31,123.13 189.08,127.00
             189.08,127.00 161.58,160.00 161.58,160.00
             156.92,165.52 148.90,173.76 146.00,180.00
             146.00,180.00 267.00,180.00 267.00,180.00
             267.00,180.00 222.95,129.00 222.95,129.00 Z
           M 175.00,127.00
           C 175.00,127.00 176.00,128.00 176.00,128.00
             176.00,128.00 176.00,127.00 176.00,127.00
             176.00,127.00 175.00,127.00 175.00,127.00 Z
           M 140.00,145.69
           C 140.00,145.69 110.00,162.00 110.00,162.00
             110.00,162.00 127.00,172.15 127.00,172.15
             129.06,173.32 132.55,175.57 134.96,175.13
             138.16,174.54 143.85,166.66 146.13,164.00
             146.13,164.00 164.59,142.00 164.59,142.00
             168.29,137.55 172.55,133.28 175.00,128.00
             175.00,128.00 140.00,145.69 140.00,145.69 Z
           M 237.00,130.00
           C 237.00,130.00 238.00,131.00 238.00,131.00
             238.00,131.00 238.00,130.00 238.00,130.00
             238.00,130.00 237.00,130.00 237.00,130.00 Z
           M 249.07,145.00
           C 249.07,145.00 275.00,175.00 275.00,175.00
             275.00,175.00 294.00,165.00 294.00,165.00
             294.00,165.00 294.00,163.00 294.00,163.00
             294.00,163.00 254.00,139.58 254.00,139.58
             254.00,139.58 239.00,131.00 239.00,131.00
             239.35,135.46 245.99,141.60 249.07,145.00 Z
           M 105.00,171.00
           C 105.00,171.00 105.00,226.00 105.00,226.00
             105.00,226.00 106.00,252.00 106.00,252.00
             106.00,252.00 131.00,185.00 131.00,185.00
             131.00,185.00 105.00,171.00 105.00,171.00 Z
           M 286.00,180.40
           C 286.00,180.40 280.40,185.21 280.40,185.21
             280.40,185.21 285.34,203.00 285.34,203.00
             285.34,203.00 296.00,233.00 296.00,233.00
             296.00,233.00 304.00,254.00 304.00,254.00
             304.00,254.00 303.00,234.00 303.00,234.00
             303.00,234.00 302.00,171.00 302.00,171.00
             302.00,171.00 286.00,180.40 286.00,180.40 Z
           M 183.00,184.00
           C 174.13,184.00 146.76,183.08 140.00,185.00
             140.00,185.00 156.60,213.00 156.60,213.00
             156.60,213.00 182.80,257.00 182.80,257.00
             182.80,257.00 206.00,294.00 206.00,294.00
             206.00,294.00 251.20,219.00 251.20,219.00
             251.20,219.00 263.20,199.00 263.20,199.00
             266.37,193.72 269.30,190.25 270.00,184.00
             270.00,184.00 183.00,184.00 183.00,184.00 Z
           M 128.19,218.00
           C 128.19,218.00 107.00,275.00 107.00,275.00
             107.00,275.00 115.00,278.75 115.00,278.75
             115.00,278.75 144.00,284.40 144.00,284.40
             144.00,284.40 177.00,290.61 177.00,290.61
             177.00,290.61 201.00,295.00 201.00,295.00
             201.00,295.00 177.80,256.00 177.80,256.00
             177.80,256.00 139.00,191.00 139.00,191.00
             139.00,191.00 128.19,218.00 128.19,218.00 Z
           M 246.60,234.00
           C 246.60,234.00 211.00,294.00 211.00,294.00
             211.00,294.00 269.00,284.75 269.00,284.75
             277.54,283.33 294.92,281.35 302.00,278.00
             302.00,278.00 272.00,193.00 272.00,193.00
             272.00,193.00 246.60,234.00 246.60,234.00 Z
           M 228.35,203.00
           C 230.55,209.94 227.76,221.60 224.67,228.00
             223.08,231.31 220.85,234.70 217.00,235.53
             211.24,236.76 208.40,231.82 207.47,227.00
             205.73,218.05 208.92,205.98 213.00,198.00
             213.00,198.00 216.00,200.00 216.00,200.00
             220.89,194.29 226.17,196.13 228.35,203.00 Z
           M 184.60,202.43
           C 188.14,198.35 199.09,199.66 201.83,204.22
             206.66,212.27 192.98,226.07 189.00,233.00
             189.00,233.00 205.00,233.00 205.00,233.00
             202.12,238.16 194.58,239.15 189.00,238.94
             186.39,238.84 182.73,238.25 182.73,234.89
             182.72,229.64 195.60,218.92 197.44,213.02
             198.78,208.70 194.50,206.51 191.01,207.22
             188.39,207.75 186.02,210.32 184.00,212.00
             183.13,208.94 182.26,205.13 184.60,202.43 Z
           M 219.37,228.58
           C 223.68,224.13 227.35,210.72 222.99,205.43
             221.95,204.16 220.63,203.45 218.96,203.45
             213.66,203.45 212.80,208.91 212.19,213.00
             211.99,215.39 211.91,218.60 212.19,221.00
             212.39,225.07 213.24,227.37 215.00,231.00
             216.95,230.29 217.81,230.18 219.37,228.58 Z
           M 159.00,296.00
           C 153.82,294.96 144.87,292.22 140.00,294.00
             140.00,294.00 182.00,318.28 182.00,318.28
             182.00,318.28 202.00,329.00 202.00,329.00
             202.00,329.00 202.00,304.00 202.00,304.00
             202.00,304.00 159.00,296.00 159.00,296.00 Z
           M 248.00,296.75
           C 248.00,296.75 210.00,303.00 210.00,303.00
             210.00,303.00 210.00,329.00 210.00,329.00
             210.00,329.00 249.00,307.86 249.00,307.86
             249.00,307.86 274.00,293.00 274.00,293.00
             274.00,293.00 248.00,296.75 248.00,296.75 Z" />
</svg>
